HIERARCHY
ROOT mixamorig:Hips
{
	OFFSET -0.000008 104.274872 1.554316
	CHANNELS 6 Xposition Yposition Zposition Xrotation Yrotation Zrotation
	JOINT mixamorig:Spine
	{
		OFFSET -0.000005 10.181595 0.131519
		CHANNELS 6 Xposition Yposition Zposition Xrotation Yrotation Zrotation
		JOINT mixamorig:Spine1
		{
			OFFSET -0.000000 9.893959 -1.470707
			CHANNELS 6 Xposition Yposition Zposition Xrotation Yrotation Zrotation
			JOINT mixamorig:Spine2
			{
				OFFSET -0.000000 9.220757 -1.370641
				CHANNELS 6 Xposition Yposition Zposition Xrotation Yrotation Zrotation
				JOINT mixamorig:Neck
				{
					OFFSET 0.000001 16.740417 -2.049036
					CHANNELS 6 Xposition Yposition Zposition Xrotation Yrotation Zrotation
					JOINT mixamorig:Head
					{
						OFFSET 0.000000 9.617874 1.685006
						CHANNELS 6 Xposition Yposition Zposition Xrotation Yrotation Zrotation
						JOINT mixamorig:HeadTop_End
						{
							OFFSET 0.000002 22.037354 7.501101
							CHANNELS 6 Xposition Yposition Zposition Xrotation Yrotation Zrotation
							End Site
							{
								OFFSET 0.000168 2310.654297 -282.823242
							}
						}
					}
				}
				JOINT mixamorig:RightShoulder
				{
					OFFSET -4.569970 11.014908 -2.160885
					CHANNELS 6 Xposition Yposition Zposition Xrotation Yrotation Zrotation
					JOINT mixamorig:RightArm
					{
						OFFSET -10.592851 -0.524811 -2.232101
						CHANNELS 6 Xposition Yposition Zposition Xrotation Yrotation Zrotation
						JOINT mixamorig:RightForeArm
						{
							OFFSET -27.841511 0.000031 -0.000004
							CHANNELS 6 Xposition Yposition Zposition Xrotation Yrotation Zrotation
							JOINT mixamorig:RightHand
							{
								OFFSET -28.328831 -0.000015 0.000015
								CHANNELS 6 Xposition Yposition Zposition Xrotation Yrotation Zrotation
								JOINT mixamorig:RightHandThumb1
								{
									OFFSET -2.464806 -1.573990 2.681852
									CHANNELS 6 Xposition Yposition Zposition Xrotation Yrotation Zrotation
									JOINT mixamorig:RightHandThumb2
									{
										OFFSET -3.215179 -1.872803 1.924282
										CHANNELS 6 Xposition Yposition Zposition Xrotation Yrotation Zrotation
										JOINT mixamorig:RightHandThumb3
										{
											OFFSET -2.654831 -1.527969 1.512609
											CHANNELS 6 Xposition Yposition Zposition Xrotation Yrotation Zrotation
											JOINT mixamorig:RightHandThumb4
											{
												OFFSET -2.018814 -1.152008 1.108052
												CHANNELS 6 Xposition Yposition Zposition Xrotation Yrotation Zrotation
												End Site
												{
													OFFSET -188.809540 -114.533607 132.431396
												}
											}
										}
									}
								}
								JOINT mixamorig:RightHandIndex1
								{
									OFFSET -9.108284 -0.517868 2.259835
									CHANNELS 6 Xposition Yposition Zposition Xrotation Yrotation Zrotation
									JOINT mixamorig:RightHandIndex2
									{
										OFFSET -3.699989 0.000000 0.001215
										CHANNELS 6 Xposition Yposition Zposition Xrotation Yrotation Zrotation
										JOINT mixamorig:RightHandIndex3
										{
											OFFSET -2.850006 0.000031 -0.000522
											CHANNELS 6 Xposition Yposition Zposition Xrotation Yrotation Zrotation
											JOINT mixamorig:RightHandIndex4
											{
												OFFSET -2.772186 -0.000015 -0.000020
												CHANNELS 6 Xposition Yposition Zposition Xrotation Yrotation Zrotation
												End Site
												{
													OFFSET -277.218445 0.000000 -0.050231
												}
											}
										}
									}
								}
								JOINT mixamorig:RightHandMiddle1
								{
									OFFSET -9.532516 -0.000031 -0.000023
									CHANNELS 6 Xposition Yposition Zposition Xrotation Yrotation Zrotation
									JOINT mixamorig:RightHandMiddle2
									{
										OFFSET -3.700005 -0.000015 0.003713
										CHANNELS 6 Xposition Yposition Zposition Xrotation Yrotation Zrotation
										JOINT mixamorig:RightHandMiddle3
										{
											OFFSET -2.949974 0.000015 -0.002054
											CHANNELS 6 Xposition Yposition Zposition Xrotation Yrotation Zrotation
											JOINT mixamorig:RightHandMiddle4
											{
												OFFSET -2.946640 0.000000 -0.000156
												CHANNELS 6 Xposition Yposition Zposition Xrotation Yrotation Zrotation
												End Site
												{
													OFFSET -294.664337 0.000000 -0.113670
												}
											}
										}
									}
								}
								JOINT mixamorig:RightHandRing1
								{
									OFFSET -9.103600 -0.043076 -1.865134
									CHANNELS 6 Xposition Yposition Zposition Xrotation Yrotation Zrotation
									JOINT mixamorig:RightHandRing2
									{
										OFFSET -3.379288 0.000000 -0.001055
										CHANNELS 6 Xposition Yposition Zposition Xrotation Yrotation Zrotation
										JOINT mixamorig:RightHandRing3
										{
											OFFSET -2.889687 -0.000015 0.000379
											CHANNELS 6 Xposition Yposition Zposition Xrotation Yrotation Zrotation
											JOINT mixamorig:RightHandRing4
											{
												OFFSET -2.638809 -0.000015 0.000941
												CHANNELS 6 Xposition Yposition Zposition Xrotation Yrotation Zrotation
												End Site
												{
													OFFSET -263.880371 0.000000 0.516020
												}
											}
										}
									}
								}
								JOINT mixamorig:RightHandPinky1
								{
									OFFSET -8.076683 -0.486710 -3.806280
									CHANNELS 6 Xposition Yposition Zposition Xrotation Yrotation Zrotation
									JOINT mixamorig:RightHandPinky2
									{
										OFFSET -3.600014 -0.000015 -0.003747
										CHANNELS 6 Xposition Yposition Zposition Xrotation Yrotation Zrotation
										JOINT mixamorig:RightHandPinky3
										{
											OFFSET -2.099983 0.000000 -0.005739
											CHANNELS 6 Xposition Yposition Zposition Xrotation Yrotation Zrotation
											JOINT mixamorig:RightHandPinky4
											{
												OFFSET -2.115768 -0.000031 -0.003680
												CHANNELS 6 Xposition Yposition Zposition Xrotation Yrotation Zrotation
												End Site
												{
													OFFSET -211.577087 0.000000 -0.350686
												}
											}
										}
									}
								}
							}
						}
					}
				}
				JOINT mixamorig:LeftShoulder
				{
					OFFSET 4.570447 11.014725 -2.160855
					CHANNELS 6 Xposition Yposition Zposition Xrotation Yrotation Zrotation
					JOINT mixamorig:LeftArm
					{
						OFFSET 10.592371 -0.524597 -2.232119
						CHANNELS 6 Xposition Yposition Zposition Xrotation Yrotation Zrotation
						JOINT mixamorig:LeftForeArm
						{
							OFFSET 27.841532 -0.000031 0.000026
							CHANNELS 6 Xposition Yposition Zposition Xrotation Yrotation Zrotation
							JOINT mixamorig:LeftHand
							{
								OFFSET 28.328846 -0.000061 0.000022
								CHANNELS 6 Xposition Yposition Zposition Xrotation Yrotation Zrotation
								JOINT mixamorig:LeftHandThumb1
								{
									OFFSET 2.466141 -1.576172 2.681732
									CHANNELS 6 Xposition Yposition Zposition Xrotation Yrotation Zrotation
									JOINT mixamorig:LeftHandThumb2
									{
										OFFSET 3.217812 -1.872070 1.916482
										CHANNELS 6 Xposition Yposition Zposition Xrotation Yrotation Zrotation
										JOINT mixamorig:LeftHandThumb3
										{
											OFFSET 2.656029 -1.528778 1.514513
											CHANNELS 6 Xposition Yposition Zposition Xrotation Yrotation Zrotation
											JOINT mixamorig:LeftHandThumb4
											{
												OFFSET 2.020889 -1.154053 1.115139
												CHANNELS 6 Xposition Yposition Zposition Xrotation Yrotation Zrotation
												End Site
												{
													OFFSET 190.885437 -115.081749 130.048782
												}
											}
										}
									}
								}
								JOINT mixamorig:LeftHandIndex1
								{
									OFFSET 9.109314 -0.518021 2.259871
									CHANNELS 6 Xposition Yposition Zposition Xrotation Yrotation Zrotation
									JOINT mixamorig:LeftHandIndex2
									{
										OFFSET 3.699989 0.000000 -0.000322
										CHANNELS 6 Xposition Yposition Zposition Xrotation Yrotation Zrotation
										JOINT mixamorig:LeftHandIndex3
										{
											OFFSET 2.850006 0.000000 0.000352
											CHANNELS 6 Xposition Yposition Zposition Xrotation Yrotation Zrotation
											JOINT mixamorig:LeftHandIndex4
											{
												OFFSET 2.774864 -0.000031 -0.000027
												CHANNELS 6 Xposition Yposition Zposition Xrotation Yrotation Zrotation
												End Site
												{
													OFFSET 277.486267 0.000000 -0.009857
												}
											}
										}
									}
								}
								JOINT mixamorig:LeftHandMiddle1
								{
									OFFSET 9.533394 0.000061 0.000044
									CHANNELS 6 Xposition Yposition Zposition Xrotation Yrotation Zrotation
									JOINT mixamorig:LeftHandMiddle2
									{
										OFFSET 3.699989 -0.000015 -0.000231
										CHANNELS 6 Xposition Yposition Zposition Xrotation Yrotation Zrotation
										JOINT mixamorig:LeftHandMiddle3
										{
											OFFSET 2.949997 -0.000015 -0.000059
											CHANNELS 6 Xposition Yposition Zposition Xrotation Yrotation Zrotation
											JOINT mixamorig:LeftHandMiddle4
											{
												OFFSET 2.952896 0.000031 0.000063
												CHANNELS 6 Xposition Yposition Zposition Xrotation Yrotation Zrotation
												End Site
												{
													OFFSET 295.289337 0.000000 0.022810
												}
											}
										}
									}
								}
								JOINT mixamorig:LeftHandRing1
								{
									OFFSET 9.104523 -0.042999 -1.865074
									CHANNELS 6 Xposition Yposition Zposition Xrotation Yrotation Zrotation
									JOINT mixamorig:LeftHandRing2
									{
										OFFSET 3.150009 -0.000031 0.000043
										CHANNELS 6 Xposition Yposition Zposition Xrotation Yrotation Zrotation
										JOINT mixamorig:LeftHandRing3
										{
											OFFSET 2.949982 -0.000015 0.000040
											CHANNELS 6 Xposition Yposition Zposition Xrotation Yrotation Zrotation
											JOINT mixamorig:LeftHandRing4
											{
												OFFSET 2.644348 0.000000 0.000057
												CHANNELS 6 Xposition Yposition Zposition Xrotation Yrotation Zrotation
												End Site
												{
													OFFSET 264.434631 0.000000 0.012105
												}
											}
										}
									}
								}
								JOINT mixamorig:LeftHandPinky1
								{
									OFFSET 8.077789 -0.486847 -3.806259
									CHANNELS 6 Xposition Yposition Zposition Xrotation Yrotation Zrotation
									JOINT mixamorig:LeftHandPinky2
									{
										OFFSET 3.599953 0.000031 0.014727
										CHANNELS 6 Xposition Yposition Zposition Xrotation Yrotation Zrotation
										JOINT mixamorig:LeftHandPinky3
										{
											OFFSET 2.100021 0.000015 0.007705
											CHANNELS 6 Xposition Yposition Zposition Xrotation Yrotation Zrotation
											JOINT mixamorig:LeftHandPinky4
											{
												OFFSET 2.125504 0.000031 0.007517
												CHANNELS 6 Xposition Yposition Zposition Xrotation Yrotation Zrotation
												End Site
												{
													OFFSET 212.550781 0.000000 0.625752
												}
											}
										}
									}
								}
							}
						}
					}
				}
			}
		}
	}
	JOINT mixamorig:RightUpLeg
	{
		OFFSET -8.207787 -6.751648 -1.599560
		CHANNELS 6 Xposition Yposition Zposition Xrotation Yrotation Zrotation
		JOINT mixamorig:RightLeg
		{
			OFFSET -0.000002 -44.370117 0.345942
			CHANNELS 6 Xposition Yposition Zposition Xrotation Yrotation Zrotation
			JOINT mixamorig:RightFoot
			{
				OFFSET 0.000003 -44.423679 -3.043532
				CHANNELS 6 Xposition Yposition Zposition Xrotation Yrotation Zrotation
				JOINT mixamorig:RightToeBase
				{
					OFFSET -0.000002 -8.728671 10.710558
					CHANNELS 6 Xposition Yposition Zposition Xrotation Yrotation Zrotation
					JOINT mixamorig:RightToe_End
					{
						OFFSET -0.000001 -0.000679 9.278119
						CHANNELS 6 Xposition Yposition Zposition Xrotation Yrotation Zrotation
						End Site
						{
							OFFSET 0.000000 -0.067690 927.812134
						}
					}
				}
			}
		}
	}
	JOINT mixamorig:LeftUpLeg
	{
		OFFSET 8.207793 -6.751686 -1.599556
		CHANNELS 6 Xposition Yposition Zposition Xrotation Yrotation Zrotation
		JOINT mixamorig:LeftLeg
		{
			OFFSET -0.000004 -44.370014 0.346954
			CHANNELS 6 Xposition Yposition Zposition Xrotation Yrotation Zrotation
			JOINT mixamorig:LeftFoot
			{
				OFFSET -0.000001 -44.423672 -3.044401
				CHANNELS 6 Xposition Yposition Zposition Xrotation Yrotation Zrotation
				JOINT mixamorig:LeftToeBase
				{
					OFFSET -0.000002 -8.728669 10.710558
					CHANNELS 6 Xposition Yposition Zposition Xrotation Yrotation Zrotation
					JOINT mixamorig:LeftToe_End
					{
						OFFSET -0.000003 -0.000679 9.278133
						CHANNELS 6 Xposition Yposition Zposition Xrotation Yrotation Zrotation
						End Site
						{
							OFFSET 0.000000 -0.068021 927.813477
						}
					}
				}
			}
		}
	}
}
MOTION
Frames: 3
Frame Time: 0.033333
0.000006 104.270477 1.554256 0.000010 0.000003 -0.000113 -0.000005 10.181587 0.131522 0.000001 -0.000003 0.000084 -0.000000 9.893967 -1.470711 0.000001 0.000000 -0.000000 -0.000000 9.220802 -1.370642 0.000000 -0.000000 -0.000000 0.000001 16.740433 -2.049030 0.000000 -0.000000 -0.000000 0.000000 9.617859 1.685014 0.000000 0.000000 0.000000 0.000002 22.037384 7.501101 0.000000 -0.000000 0.000000 -4.569968 11.014880 -2.160881 0.000008 0.000001 -0.000038 -10.592874 -0.524777 -2.231893 73.127127 31.489122 -23.620695 -27.841515 0.000011 0.000549 -50.068582 106.576796 64.118824 -28.328812 0.000018 0.000024 -0.000319 -0.000042 0.000003 -2.464413 -1.573805 2.682348 -44.957719 -161.116062 -2.871638 -3.215265 -1.872539 1.924619 148.558554 32.885814 21.040779 -2.654961 -1.527864 1.513059 146.511874 27.950531 -26.742127 -2.018826 -1.152014 1.108070 -0.000003 -0.000005 -0.000001 -9.108393 -0.517560 2.260137 104.255290 16.336247 -20.973558 -3.700090 0.000326 0.001514 98.507652 13.326280 -15.416673 -2.850105 0.000369 -0.000247 99.046643 10.914216 -12.773991 -2.772170 -0.000001 -0.000021 -0.000000 0.000001 -0.000001 -9.532595 0.000264 0.000282 97.536167 16.488647 -18.937265 -3.700068 0.000314 0.003990 96.500048 11.779879 -13.080917 -2.950053 0.000340 -0.001787 97.720842 10.953931 -12.519357 -2.946620 0.000001 -0.000154 -0.000001 -0.000003 -0.000002 -9.103712 -0.042759 -1.864863 92.233823 18.658967 -19.340208 -3.379331 0.000309 -0.000802 92.140980 10.378795 -10.789923 -2.889740 0.000356 0.000639 97.314329 6.848091 -7.832255 -2.638796 -0.000012 0.000941 -0.000001 -0.000000 0.000001 -8.076753 -0.486387 -3.806060 83.035942 19.138349 -16.840127 -3.600063 0.000277 -0.003528 85.649473 10.422929 -9.325997 -2.100014 0.000310 -0.005517 87.495119 6.116801 -5.644073 -2.115767 -0.000040 -0.003676 -0.000003 0.000001 -0.000004 4.570446 11.014691 -2.160851 -0.000018 0.000010 -0.000021 10.592414 -0.524472 -2.232363 72.375970 -19.487769 14.320757 27.841827 0.000052 -0.000206 103.397159 -72.807870 86.068088 28.328835 -0.000028 0.000022 0.000022 -0.000088 -0.000001 2.466227 -1.576115 2.681849 0.565506 159.243634 -82.258810 3.217798 -1.871720 1.916365 159.717103 -31.112430 1.856010 2.656100 -1.528637 1.514455 140.930763 -27.616391 44.977899 2.020891 -1.154072 1.115155 -0.000005 0.000004 0.000006 9.109385 -0.517878 2.259731 81.658436 -19.058734 16.495358 3.700059 0.000129 -0.000453 77.186424 -17.781855 14.247350 2.850058 0.000153 0.000215 76.100288 -14.829895 11.631350 2.774897 -0.000033 -0.000028 0.000000 0.000003 -0.000001 9.533470 0.000188 -0.000087 79.827576 -17.942743 15.038987 3.700049 0.000154 -0.000378 82.088594 -15.440326 13.460282 2.950077 0.000140 -0.000183 80.014560 -19.603109 16.503289 2.952872 -0.000031 0.000063 -0.000001 0.000001 0.000000 9.104589 -0.042869 -1.865219 78.149754 -16.697031 13.591463 3.150051 0.000173 -0.000095 84.381721 -12.318270 11.175268 2.950034 0.000160 -0.000068 85.684744 -14.337129 13.307408 2.644326 0.000032 0.000058 0.000003 0.000001 -0.000000 8.077851 -0.486746 -3.806421 70.668375 -17.705339 13.032436 3.599993 0.000155 0.014571 73.759746 -13.785371 10.753734 2.100055 0.000168 0.007547 78.085755 -13.494200 11.361980 2.125495 -0.000031 0.007509 0.000001 0.000001 0.000000 -8.207786 -6.751667 -1.599560 -0.077001 -0.000003 0.000080 -0.000002 -44.370110 0.345938 0.153719 -0.000000 -0.000000 0.000000 -44.423679 -3.043532 -0.076700 0.000000 -0.000002 -0.000006 -8.728667 10.710559 -0.000009 -0.000000 -0.000000 -0.000001 -0.000679 9.278123 0.000000 -0.000000 -0.000000 8.207792 -6.751710 -1.599556 -0.074518 -0.000003 0.000081 -0.000002 -44.370014 0.346960 0.148822 0.000002 0.000000 -0.000001 -44.423664 -3.044403 -0.074314 0.000000 -0.000002 -0.000004 -8.728671 10.710558 0.000007 -0.000000 -0.000000 0.000000 -0.000680 9.278137 -0.000000 0.000000 -0.000001 
0.000006 104.270477 1.554256 0.000010 0.000003 -0.000113 -0.000005 10.181587 0.131522 0.000001 -0.000003 0.000084 -0.000000 9.893967 -1.470711 0.000001 0.000000 -0.000000 -0.000000 9.220802 -1.370642 0.000000 -0.000000 -0.000000 0.000001 16.740433 -2.049030 0.000000 -0.000000 -0.000000 0.000000 9.617859 1.685014 0.000000 0.000000 0.000000 0.000002 22.037384 7.501101 0.000000 -0.000000 0.000000 -4.569968 11.014880 -2.160881 0.000008 0.000001 -0.000038 -10.592854 -0.524806 -2.231832 73.311535 44.065385 -33.520526 -27.841524 0.000005 0.000542 -47.470610 103.145835 57.993046 -28.328833 -0.000003 0.000029 -0.000321 -0.000045 0.000008 -2.464426 -1.573780 2.682318 -48.642609 -163.466316 -11.906791 -3.215267 -1.872537 1.924616 147.849731 32.435001 18.741499 -2.654982 -1.527851 1.513044 145.172201 28.137910 -26.283347 -2.018834 -1.152014 1.108062 -0.000004 -0.000007 0.000002 -9.108376 -0.517556 2.260129 99.801235 15.639200 -18.580485 -3.700066 0.000327 0.001512 96.912755 13.298578 -14.963435 -2.850102 0.000359 -0.000253 97.022953 11.892176 -13.432629 -2.772155 -0.000000 -0.000014 0.000001 -0.000001 -0.000000 -9.532587 0.000268 0.000248 93.645363 16.189394 -17.389740 -3.700082 0.000316 0.003978 94.310883 12.762067 -13.648404 -2.950073 0.000338 -0.001784 96.970880 12.777043 -14.409857 -2.946641 0.000013 -0.000162 0.000001 -0.000000 0.000000 -9.103708 -0.042774 -1.864877 90.119278 19.517477 -19.511672 -3.379335 0.000313 -0.000827 90.565993 10.394091 -10.514389 -2.889760 0.000344 0.000638 97.876624 7.629365 -8.806161 -2.638803 -0.000001 0.000942 -0.000001 -0.000001 0.000001 -8.076763 -0.486403 -3.806030 81.239943 20.893311 -17.837850 -3.600041 0.000266 -0.003546 82.844826 10.242584 -8.721104 -2.100015 0.000319 -0.005504 86.209357 5.853646 -5.273193 -2.115772 -0.000041 -0.003683 0.000000 -0.000003 -0.000005 4.570446 11.014691 -2.160851 -0.000018 0.000010 -0.000021 10.592451 -0.524473 -2.232400 72.012761 -30.358292 22.306833 27.841824 0.000058 -0.000185 105.979988 -76.324188 92.383192 28.328817 -0.000029 0.000027 0.000024 -0.000092 0.000003 2.466208 -1.576101 2.681849 -0.826278 163.157360 -84.682277 3.217832 -1.871747 1.916387 163.435157 -28.310700 15.224627 2.656109 -1.528639 1.514484 139.637070 -27.613099 53.587373 2.020899 -1.154067 1.115144 -0.000001 0.000001 0.000002 9.109355 -0.517886 2.259747 79.721183 -20.977898 17.564018 3.700033 0.000134 -0.000465 79.975443 -13.174586 11.078715 2.850058 0.000185 0.000195 79.963094 -10.870185 9.122238 2.774882 -0.000016 -0.000029 0.000002 0.000001 -0.000001 9.533448 0.000178 -0.000084 79.219765 -19.771994 16.406034 3.700041 0.000166 -0.000396 83.583935 -11.200566 10.015667 2.950052 0.000163 -0.000206 83.763903 -12.728285 11.425035 2.952860 -0.000045 0.000061 -0.000002 0.000000 -0.000001 9.104568 -0.042881 -1.865214 78.033415 -19.463259 15.824193 3.150038 0.000191 -0.000111 85.788057 -11.282940 10.488878 2.950032 0.000168 -0.000081 87.066935 -10.699559 10.169914 2.644331 0.000030 0.000059 -0.000001 0.000001 0.000001 8.077818 -0.486758 -3.806396 69.326639 -20.024067 14.351954 3.600005 0.000146 0.014570 72.804243 -15.454970 11.817277 2.100012 0.000168 0.007561 76.055891 -12.558001 10.219306 2.125504 -0.000000 0.007516 -0.000000 0.000000 -0.000000 -8.207786 -6.751667 -1.599560 -0.077001 -0.000003 0.000080 -0.000002 -44.370110 0.345938 0.153719 -0.000000 -0.000000 0.000000 -44.423679 -3.043532 -0.076700 0.000000 -0.000002 -0.000006 -8.728667 10.710559 -0.000009 -0.000000 -0.000000 -0.000001 -0.000679 9.278123 0.000000 -0.000000 -0.000000 8.207792 -6.751710 -1.599556 -0.074518 -0.000003 0.000081 -0.000002 -44.370014 0.346960 0.148822 0.000002 0.000000 -0.000001 -44.423664 -3.044403 -0.074314 0.000000 -0.000002 -0.000004 -8.728671 10.710558 0.000007 -0.000000 -0.000000 0.000000 -0.000680 9.278137 -0.000000 0.000000 -0.000001 
0.000006 104.270477 1.554256 0.000010 0.000003 -0.000113 -0.000005 10.181587 0.131522 0.000001 -0.000003 0.000084 -0.000000 9.893967 -1.470711 0.000001 0.000000 -0.000000 -0.000000 9.220802 -1.370642 0.000000 -0.000000 -0.000000 0.000001 16.740433 -2.049030 0.000000 -0.000000 -0.000000 0.000000 9.617859 1.685014 0.000000 0.000000 0.000000 0.000002 22.037384 7.501101 0.000000 -0.000000 0.000000 -4.569968 11.014880 -2.160881 0.000008 0.000001 -0.000038 -10.592854 -0.524794 -2.231835 73.769260 42.712134 -32.705053 -27.841516 0.000017 0.000558 -46.850279 102.324430 56.572794 -28.328836 0.000015 0.000026 -0.000321 -0.000046 0.000010 -2.464400 -1.573785 2.682340 -46.957906 -162.012606 -7.706744 -3.215272 -1.872549 1.924617 148.261783 32.065966 14.770247 -2.654964 -1.527854 1.513053 143.637608 28.307451 -26.257815 -2.018827 -1.152017 1.108052 -0.000003 -0.000002 0.000005 -9.108375 -0.517558 2.260129 99.490591 15.208625 -17.975169 -3.700081 0.000320 0.001502 96.603580 12.924075 -14.464421 -2.850104 0.000373 -0.000259 96.650223 11.634228 -13.056730 -2.772149 -0.000002 -0.000025 0.000001 0.000002 0.000000 -9.532578 0.000278 0.000238 92.894322 15.166191 -16.090706 -3.700092 0.000324 0.003973 94.383345 12.761289 -13.664732 -2.950059 0.000329 -0.001785 96.958804 13.057139 -14.722077 -2.946620 -0.000015 -0.000155 -0.000003 -0.000000 0.000001 -9.103698 -0.042762 -1.864882 89.226688 18.654862 -18.364374 -3.379339 0.000313 -0.000815 91.181297 10.670868 -10.909762 -2.889753 0.000363 0.000642 98.316072 8.113437 -9.433805 -2.638807 -0.000003 0.000944 -0.000001 0.000004 0.000002 -8.076739 -0.486404 -3.806039 80.656153 20.200177 -17.064720 -3.600063 0.000273 -0.003546 83.401261 9.935711 -8.533953 -2.100018 0.000308 -0.005494 86.448181 5.872027 -5.312458 -2.115761 -0.000052 -0.003680 0.000001 -0.000001 -0.000003 4.570446 11.014691 -2.160851 -0.000018 0.000010 -0.000021 10.592445 -0.524475 -2.232398 70.966205 -29.680590 21.392047 27.841829 0.000030 -0.000170 107.989273 -77.004987 95.177539 28.328806 -0.000026 0.000027 0.000021 -0.000090 0.000001 2.466247 -1.575983 2.681818 15.884768 175.655704 -117.621595 3.217880 -1.871828 1.916417 166.769833 -23.333372 33.149995 2.656109 -1.528680 1.514484 142.768494 -26.423552 55.529277 2.020902 -1.154073 1.115140 0.000004 0.000003 0.000004 9.109372 -0.517889 2.259746 80.701171 -23.036346 19.633179 3.700063 0.000144 -0.000468 82.076403 -14.375089 12.543822 2.850035 0.000185 0.000202 81.724750 -11.311469 9.792182 2.774876 -0.000044 -0.000027 0.000001 0.000000 -0.000002 9.533456 0.000176 -0.000070 79.944304 -20.870249 17.544557 3.700045 0.000175 -0.000385 84.675460 -11.319667 10.317009 2.950059 0.000168 -0.000207 84.261455 -12.150067 11.000407 2.952874 -0.000027 0.000064 -0.000001 0.000000 -0.000000 9.104570 -0.042873 -1.865196 79.899580 -20.380139 17.125953 3.150056 0.000195 -0.000099 85.146320 -12.173862 11.192155 2.950010 0.000174 -0.000094 85.327511 -10.462381 9.647787 2.644317 0.000032 0.000057 -0.000001 -0.000000 0.000000 8.077830 -0.486750 -3.806398 72.030615 -20.855815 15.695218 3.600007 0.000147 0.014569 73.597016 -16.736084 12.960059 2.100045 0.000163 0.007559 76.310193 -13.328757 10.877876 2.125511 -0.000000 0.007513 -0.000000 -0.000001 0.000000 -8.207786 -6.751667 -1.599560 -0.077001 -0.000003 0.000080 -0.000002 -44.370110 0.345938 0.153719 -0.000000 -0.000000 0.000000 -44.423679 -3.043532 -0.076700 0.000000 -0.000002 -0.000006 -8.728667 10.710559 -0.000009 -0.000000 -0.000000 -0.000001 -0.000679 9.278123 0.000000 -0.000000 -0.000000 8.207792 -6.751710 -1.599556 -0.074518 -0.000003 0.000081 -0.000002 -44.370014 0.346960 0.148822 0.000002 0.000000 -0.000001 -44.423664 -3.044403 -0.074314 0.000000 -0.000002 -0.000004 -8.728671 10.710558 0.000007 -0.000000 -0.000000 0.000000 -0.000680 9.278137 -0.000000 0.000000 -0.000001 
